Teen Dodger (Mackenzie Astin) gets the surprise of his life when he uncovers a repulsive gang of alien kids in this gross-out tale based on the popular 1980s trading cards. Dodger decides to free Messy Tessie, Foul Phil, Valerie Vomit and the other filthy kids. Out of the garbage can, they help him fight bullies, but is the world ready for the icky Garbage Pail Kids or will authorities toss them down the disposal? Anthony Newley co-stars.



General
Complete name : The Garbage Pail Kids PartsGuy DvdRip x264 LKRG.m4v
Format : MPEG-4
Format profile : Base Media / Version 2
Codec ID : mp42
File size : 1.23 GiB
Duration : 1h 36mn
Overall bit rate : 1 823 Kbps

ideo
ID : 1
Format : AVC
Format/Info : Advanced Video Codec
Format profile : Main@L3.0
Format settings, CABAC : Yes
Format settings, ReFrames : 2 frames
Codec ID : avc1
Codec ID/Info : Advanced Video Coding
Duration : 1h 36mn
Bit rate mode : Variable
Bit rate : 1 703 Kbps
Width : 720 pixels
Height : 472 pixels
Display aspect ratio : 16:9
Frame rate mode : Variable
Frame rate : 27.754 fps
Original frame rate : 29.970 fps
Minimum frame rate : 14.985 fps
Maximum frame rate : 29.970 fps
Color space : YUV
Chroma subsampling : 4:2:0
Bit depth : 8 bits
Scan type : Progressive
Bits/(Pixel*Frame) : 0.181
Stream size : 1.15 GiB (93%)
Writing library : x264 core 79

Audio
ID : 2
Format : AAC
format/Info : Advanced Audio Codec
Format version : Version 4
Format profile : LC
Format settings, SBR : No
Codec ID : 40
Duration : 1h 36mn
Bit rate mode : Variable
Bit rate : 115 Kbps
Maximum bit rate : 161 Kbps
Channel(s) : 2 channels
Channel positions : Front: L R
Sampling rate : 48.0 KHz
Stream size : 79.7 MiB (6%)
Language : English